<svg width="281" height="47" viewBox="0 0 281 47" fill="none" xmlns="http://www.w3.org/2000/svg">
<rect x="93.0899" y="34" width="2.02119" height="10" fill="white"/>
<rect x="90.0581" y="36" width="3.03179" height="2" fill="white"/>
<rect x="87.0263" y="34" width="4.04238" height="2" fill="white"/>
<rect x="87.0263" y="42" width="4.04238" height="2" fill="white"/>
<rect x="90.0581" y="38" width="4" height="2.02119" transform="rotate(-90 90.0581 38)" fill="white"/>
<rect x="90.0581" y="44" width="4" height="2.02119" transform="rotate(-90 90.0581 44)" fill="white"/>
<rect x="87.0263" y="38" width="4" height="2.02119" transform="rotate(-90 87.0263 38)" fill="white"/>
<rect x="87.0263" y="44" width="4" height="2.02119" transform="rotate(-90 87.0263 44)" fill="white"/>
<rect x="90.0581" y="40" width="3.03179" height="2" fill="white"/>
<rect x="95" y="4" width="3" height="43" rx="1.5" fill="white"/>
<path d="M11 22.7018V6.3009H7.9123C6.7895 6.3009 5.8672 6.6217 5.1454 7.2633C4.79787 7.55737 4.51717 7.95837 4.3033 8.4663C4.0627 8.9475 3.9424 9.57573 3.9424 10.351H0.7344C0.7344 9.148 0.948267 8.09203 1.376 7.1831C1.777 6.27417 2.32503 5.4989 3.0201 4.8573C3.71517 4.24243 4.49043 3.80133 5.3459 3.534C6.20137 3.23993 7.05683 3.0929 7.9123 3.0929H24.5538L22.5488 6.3009H14.208V22.7018C14.208 23.4771 14.3016 24.132 14.4887 24.6667C14.7026 25.1746 14.9699 25.589 15.2907 25.9098C15.6115 26.2306 15.959 26.4578 16.3333 26.5915C16.7343 26.7252 17.1353 26.792 17.5363 26.792C17.9373 26.792 18.3383 26.7118 18.7393 26.5514C19.167 26.3643 19.5413 26.1103 19.8621 25.7895C20.2096 25.442 20.477 25.0142 20.6641 24.5063C20.878 23.9984 20.9849 23.3969 20.9849 22.7018H24.1929C24.1929 23.8246 24.0058 24.8405 23.6315 25.7494C23.2572 26.6316 22.7627 27.3801 22.1478 27.995C21.5329 28.6099 20.8245 29.0911 20.0225 29.4386C19.2472 29.7861 18.4452 29.9733 17.6165 30C16.761 30.0267 15.9323 29.8931 15.1303 29.599C14.3283 29.2782 13.6199 28.8104 13.005 28.1955C12.3901 27.5806 11.8956 26.8187 11.5213 25.9098C11.1738 24.9741 11 23.9048 11 22.7018ZM26.1988 32.3258V30V3.1731L29.4068 5.1781V14.3209C30.797 13.305 32.3475 12.7971 34.0584 12.7971C35.0476 12.7971 36.01 12.9976 36.9456 13.3986C37.8813 13.7729 38.71 14.3343 39.4318 15.0828C40.1536 15.8046 40.7284 16.7002 41.1561 17.7695C41.6106 18.8388 41.8378 20.0686 41.8378 21.4587V26.8321H42.319H42.4393C42.8671 26.8856 43.3082 26.8455 43.7626 26.7118C44.2438 26.5514 44.6582 26.3108 45.0057 25.99C45.38 25.6425 45.6874 25.2014 45.928 24.6667C46.1686 24.132 46.2889 23.5038 46.2889 22.782H49.4969C49.4969 23.985 49.2831 25.0543 48.8553 25.99C48.4276 26.9257 47.8662 27.7143 47.1711 28.3559C46.5563 28.8906 45.8746 29.3049 45.126 29.599C44.3775 29.8663 43.6156 30 42.8403 30H42.319H38.6298V21.4587C38.6298 20.4963 38.4962 19.6809 38.2288 19.0126C37.9615 18.3175 37.6006 17.7561 37.1461 17.3284C36.7184 16.8739 36.2238 16.5398 35.6624 16.3259C35.1278 16.112 34.5797 16.0051 34.0183 16.0051C33.4837 16.0051 32.949 16.112 32.4143 16.3259C31.8797 16.513 31.3851 16.8205 30.9306 17.2482C30.5029 17.6759 30.142 18.224 29.8479 18.8923C29.5806 19.5339 29.4336 20.3092 29.4068 21.2181V30L26.1988 32.3258ZM53.9872 33.9298C53.2119 33.3149 52.5971 32.5263 52.1426 31.5639C51.7149 30.6282 51.501 29.5589 51.501 28.3559V12.7971H54.709H58.6789C59.9086 12.8773 61.0047 13.1313 61.9671 13.559C62.9295 13.96 63.7315 14.4813 64.3731 15.1229C65.0147 15.7645 65.4959 16.4997 65.8167 17.3284C66.1642 18.1304 66.3246 18.9725 66.2979 19.8547C66.2712 20.7369 66.0707 21.579 65.6964 22.381C65.3489 23.183 64.8409 23.8914 64.1726 24.5063C63.531 25.0944 62.729 25.5756 61.7666 25.9499C60.8309 26.2974 59.7616 26.4712 58.5586 26.4712H54.709V28.3559C54.709 29.1312 54.8427 29.7728 55.11 30.2807C55.3773 30.8154 55.7249 31.2297 56.1526 31.5238C56.5803 31.8446 57.0482 32.0585 57.5561 32.1654C58.0908 32.2991 58.6121 32.3525 59.12 32.3258C60.3765 32.2723 61.4458 31.8981 62.328 31.203C62.729 30.8555 63.0498 30.4545 63.2904 30C63.531 29.5455 63.6513 29.0109 63.6513 28.396V26.792H67.1801C67.6613 26.792 68.1291 26.7252 68.5836 26.5915C69.0648 26.4311 69.4925 26.1905 69.8668 25.8697C70.2411 25.5489 70.5485 25.1345 70.7891 24.6266C71.0297 24.0919 71.15 23.4503 71.15 22.7018H74.358C74.358 23.9048 74.1441 24.9741 73.7164 25.9098C73.3154 26.8187 72.7674 27.5806 72.0723 28.1955C71.404 28.7836 70.6421 29.2381 69.7866 29.5589C68.9311 29.853 68.0623 30 67.1801 30H66.6588C66.4984 30.7485 66.2177 31.4302 65.8167 32.0451C65.4157 32.66 64.9345 33.1946 64.3731 33.6491C63.6513 34.264 62.8359 34.7184 61.927 35.0125C61.0448 35.3333 60.1492 35.5071 59.2403 35.5338C58.3046 35.5873 57.3823 35.4803 56.4734 35.213C55.5645 34.9724 54.7357 34.5447 53.9872 33.9298ZM63.0899 19.7745C63.0899 19.4002 63.0231 19.0126 62.8894 18.6116C62.7557 18.2106 62.5285 17.8363 62.2077 17.4888C61.8869 17.1145 61.4725 16.7937 60.9646 16.5264C60.4567 16.2591 59.8284 16.0719 59.0799 15.965L58.4784 15.9249H54.709V23.2632H58.5586C59.3606 23.2632 60.0423 23.1563 60.6037 22.9424C61.1651 22.7285 61.6196 22.4612 61.9671 22.1404C62.3414 21.7929 62.6221 21.4186 62.8092 21.0176C62.9963 20.5899 63.0899 20.1755 63.0899 19.7745ZM95.4089 22.7018V6.3009H92.3212C91.1984 6.3009 90.2761 6.6217 89.5543 7.2633C89.2068 7.55737 88.9261 7.95837 88.7122 8.4663C88.4716 8.9475 88.3513 9.57573 88.3513 10.351H85.1433C85.1433 9.148 85.3572 8.09203 85.7849 7.1831C86.1859 6.27417 86.734 5.4989 87.429 4.8573C88.1241 4.24243 88.8994 3.80133 89.7548 3.534C90.6103 3.23993 91.4658 3.0929 92.3212 3.0929H108.963L106.958 6.3009H98.6169V22.7018C98.6169 23.4771 98.7105 24.132 98.8976 24.6667C99.1115 25.1746 99.3788 25.589 99.6996 25.9098C100.02 26.2306 100.368 26.4578 100.742 26.5915C101.143 26.7252 101.544 26.792 101.945 26.792C102.346 26.792 102.747 26.7118 103.148 26.5514C103.576 26.3643 103.95 26.1103 104.271 25.7895C104.619 25.442 104.886 25.0142 105.073 24.5063C105.287 23.9984 105.394 23.3969 105.394 22.7018H108.602C108.602 23.8246 108.415 24.8405 108.04 25.7494C107.666 26.6316 107.172 27.3801 106.557 27.995C105.942 28.6099 105.233 29.0911 104.431 29.4386C103.656 29.7861 102.854 29.9733 102.025 30C101.17 30.0267 100.341 29.8931 99.5392 29.599C98.7372 29.2782 98.0288 28.8104 97.4139 28.1955C96.7991 27.5806 96.3045 26.8187 95.9302 25.9098C95.5827 24.9741 95.4089 23.9048 95.4089 22.7018ZM117.385 30C116.235 30 115.219 29.746 114.337 29.2381C113.482 28.7034 112.773 28.0351 112.212 27.2331C111.677 26.4578 111.263 25.589 110.969 24.6266C110.701 23.6642 110.568 22.7018 110.568 21.7394C110.541 20.7503 110.648 19.7745 110.888 18.8121C111.129 17.823 111.517 16.9007 112.051 16.0452C112.613 15.1897 113.321 14.4679 114.177 13.8798C115.032 13.2917 116.048 12.9308 117.224 12.7971H117.425H126.487L124.883 16.0051H117.545L117.144 16.0853C116.609 16.1922 116.155 16.3927 115.781 16.6868C115.406 16.9809 115.072 17.3551 114.778 17.8096C114.431 18.3175 114.163 18.9057 113.976 19.574C113.816 20.2423 113.749 20.9374 113.776 21.6592C113.776 22.381 113.869 23.0761 114.056 23.7444C114.244 24.386 114.497 24.934 114.818 25.3885C115.487 26.3242 116.342 26.792 117.385 26.792H121.715C121.983 26.7385 122.357 26.4846 122.838 26.0301C123.319 25.5489 123.707 24.8806 124.001 24.0251C124.269 23.1964 124.322 22.1538 124.162 20.8973C124.028 19.6408 123.6 18.3309 122.878 16.9675H126.367C127.035 18.4111 127.396 19.828 127.45 21.2181C127.53 22.6082 127.396 23.8647 127.049 24.9875C126.835 25.6826 126.581 26.2841 126.287 26.792H127.891C128.96 26.792 129.869 26.4578 130.618 25.7895C130.965 25.4954 131.259 25.1078 131.5 24.6266C131.74 24.1187 131.861 23.4771 131.861 22.7018H135.069C135.069 23.9048 134.855 24.9741 134.427 25.9098C133.999 26.8187 133.438 27.5806 132.743 28.1955C132.048 28.8104 131.273 29.2648 130.417 29.5589C129.588 29.853 128.746 30 127.891 30H117.385ZM116.984 10.351L114.497 7.8648L116.984 5.4187L119.43 7.8648L116.984 10.351ZM121.916 10.351L119.43 7.8648L121.916 5.4187L124.362 7.8648L121.916 10.351ZM139.571 31.3634C138.822 30.7485 138.221 29.9866 137.766 29.0777C137.312 28.1688 137.085 27.1395 137.085 25.99V12.7971L140.293 14.4011V25.99C140.293 26.6583 140.413 27.2331 140.654 27.7143C140.894 28.1688 141.215 28.5698 141.616 28.9173C142.498 29.6124 143.568 29.9866 144.824 30.0401C145.332 30.0668 145.853 30.0134 146.388 29.8797C146.923 29.746 147.404 29.5188 147.832 29.198C148.259 28.8772 148.607 28.4495 148.874 27.9148C149.141 27.3801 149.275 26.7252 149.275 25.9499V14.4011L152.483 12.7971V25.9499C152.483 26.0836 152.47 26.2306 152.443 26.391C152.443 26.5247 152.443 26.6583 152.443 26.792H154.127C155.197 26.792 156.119 26.4712 156.894 25.8296C157.215 25.5355 157.496 25.1345 157.736 24.6266C157.977 24.1187 158.097 23.4771 158.097 22.7018H161.305C161.305 23.9048 161.091 24.9741 160.664 25.9098C160.263 26.8187 159.714 27.5806 159.019 28.1955C158.324 28.8104 157.549 29.2648 156.694 29.5589C155.838 29.853 154.983 30 154.127 30H151.36C151.173 30.2941 150.959 30.5748 150.719 30.8421C150.505 31.1094 150.264 31.35 149.997 31.5639C149.222 32.1788 148.38 32.6199 147.471 32.8872C146.588 33.1545 145.679 33.2748 144.744 33.2481C143.808 33.2214 142.886 33.0476 141.977 32.7268C141.095 32.4327 140.293 31.9783 139.571 31.3634ZM144.784 10.3109L142.298 7.9851L144.784 5.6593L147.23 7.9851L144.784 10.3109ZM175.196 30H170.665L171.026 18.9725C171.026 18.7586 170.906 18.5314 170.665 18.2908C170.478 18.1037 170.251 17.9299 169.983 17.7695C169.716 17.5824 169.435 17.3819 169.141 17.168L166.535 15.2432V22.9825L163.327 25.3885V12.4362H167.898L171.026 14.5615C171.293 14.7754 171.601 15.0026 171.948 15.2432C172.296 15.4571 172.617 15.711 172.911 16.0051C173.285 16.3526 173.592 16.767 173.833 17.2482C174.1 17.7294 174.234 18.3175 174.234 19.0126L173.953 26.792H175.196C175.624 26.792 176.079 26.7252 176.56 26.5915C177.041 26.4311 177.469 26.1905 177.843 25.8697C178.217 25.5489 178.525 25.1345 178.765 24.6266C179.033 24.0919 179.166 23.4503 179.166 22.7018H182.374C182.374 23.9048 182.16 24.9608 181.733 25.8697C181.332 26.7786 180.784 27.5405 180.089 28.1554C179.42 28.7703 178.658 29.2381 177.803 29.5589C176.947 29.853 176.079 30 175.196 30ZM175.076 36.9373L172.59 34.5714L175.076 32.2456L177.522 34.5714L175.076 36.9373ZM219.397 30H218.876H214.745V21.8998C214.745 21.2582 214.612 20.7102 214.344 20.2557C214.104 19.8012 213.783 19.427 213.382 19.1329C213.008 18.8388 212.58 18.625 212.099 18.4913C211.617 18.3309 211.15 18.2507 210.695 18.2507C210.241 18.2507 209.773 18.3175 209.292 18.4512C208.81 18.5849 208.369 18.7987 207.968 19.0928C207.567 19.3601 207.233 19.721 206.966 20.1755C206.725 20.63 206.605 21.1914 206.605 21.8597V26.9524V30L203.397 32.2055V3.1731L206.605 5.1781V15.965L216.51 6.6217V10.9124L212.179 15.163C212.794 15.2967 213.395 15.4972 213.983 15.7645C214.598 16.0051 215.16 16.3393 215.668 16.767C216.363 17.3819 216.911 18.117 217.312 18.9725C217.739 19.8012 217.953 20.777 217.953 21.8998V26.8321H218.876H218.996C219.424 26.8856 219.865 26.8455 220.319 26.7118C220.774 26.5514 221.188 26.3108 221.562 25.99C221.937 25.6425 222.231 25.2014 222.444 24.6667C222.685 24.132 222.805 23.5038 222.805 22.782H226.013C226.013 23.985 225.8 25.0543 225.372 25.99C224.971 26.9257 224.423 27.7143 223.728 28.3559C223.113 28.8906 222.431 29.2916 221.683 29.5589C220.934 29.8262 220.172 29.9733 219.397 30ZM230.52 33.9298C229.744 33.3149 229.129 32.5263 228.675 31.5639C228.247 30.6282 228.033 29.5589 228.033 28.3559V12.7971H231.241H235.211C236.441 12.8773 237.537 13.1313 238.5 13.559C239.462 13.96 240.264 14.4813 240.906 15.1229C241.547 15.7645 242.028 16.4997 242.349 17.3284C242.697 18.1304 242.857 18.9725 242.83 19.8547C242.804 20.7369 242.603 21.579 242.229 22.381C241.881 23.183 241.373 23.8914 240.705 24.5063C240.063 25.0944 239.261 25.5756 238.299 25.9499C237.363 26.2974 236.294 26.4712 235.091 26.4712H231.241V28.3559C231.241 29.1312 231.375 29.7728 231.642 30.2807C231.91 30.8154 232.257 31.2297 232.685 31.5238C233.113 31.8446 233.581 32.0585 234.089 32.1654C234.623 32.2991 235.144 32.3525 235.652 32.3258C236.909 32.2723 237.978 31.8981 238.86 31.203C239.261 30.8555 239.582 30.4545 239.823 30C240.063 29.5455 240.184 29.0109 240.184 28.396V26.792H243.713C244.194 26.792 244.662 26.7252 245.116 26.5915C245.597 26.4311 246.025 26.1905 246.399 25.8697C246.773 25.5489 247.081 25.1345 247.322 24.6266C247.562 24.0919 247.682 23.4503 247.682 22.7018H250.89C250.89 23.9048 250.677 24.9741 250.249 25.9098C249.848 26.8187 249.3 27.5806 248.605 28.1955C247.936 28.7836 247.174 29.2381 246.319 29.5589C245.464 29.853 244.595 30 243.713 30H243.191C243.031 30.7485 242.75 31.4302 242.349 32.0451C241.948 32.66 241.467 33.1946 240.906 33.6491C240.184 34.264 239.368 34.7184 238.459 35.0125C237.577 35.3333 236.682 35.5071 235.773 35.5338C234.837 35.5873 233.915 35.4803 233.006 35.213C232.097 34.9724 231.268 34.5447 230.52 33.9298ZM239.622 19.7745C239.622 19.4002 239.555 19.0126 239.422 18.6116C239.288 18.2106 239.061 17.8363 238.74 17.4888C238.419 17.1145 238.005 16.7937 237.497 16.5264C236.989 16.2591 236.361 16.0719 235.612 15.965L235.011 15.9249H231.241V23.2632H235.091C235.893 23.2632 236.575 23.1563 237.136 22.9424C237.698 22.7285 238.152 22.4612 238.5 22.1404C238.874 21.7929 239.154 21.4186 239.342 21.0176C239.529 20.5899 239.622 20.1755 239.622 19.7745ZM252.544 32.406L255.752 32.3659C255.752 33.1679 255.872 33.8496 256.113 34.411C256.353 34.9724 256.647 35.4402 256.995 35.8145C257.343 36.1888 257.73 36.4561 258.158 36.6165C258.612 36.7769 259.04 36.8571 259.441 36.8571C259.842 36.8571 260.243 36.7635 260.644 36.5764C261.045 36.3893 261.406 36.0818 261.727 35.6541C262.048 35.2264 262.328 34.6516 262.569 33.9298C262.81 33.208 262.903 32.2857 262.85 31.1629V29.0777L262.769 29.1178C262.315 29.3851 261.847 29.599 261.366 29.7594C260.885 29.8931 260.39 29.9599 259.882 29.9599C259.027 29.9866 258.211 29.853 257.436 29.5589C256.661 29.2648 255.952 28.8237 255.311 28.2356C254.669 27.6207 254.135 26.8722 253.707 25.99C253.279 25.0811 253.012 24.0385 252.905 22.8622V22.7018V12.7971L256.113 14.8021V22.6216L256.193 23.1028C256.3 23.7979 256.487 24.386 256.754 24.8672C257.022 25.3217 257.316 25.6959 257.637 25.99C257.984 26.2573 258.332 26.4578 258.679 26.5915C259.053 26.6984 259.414 26.7519 259.762 26.7519C260.136 26.7519 260.51 26.6717 260.885 26.5113C261.259 26.3509 261.593 26.1103 261.887 25.7895C262.181 25.4687 262.409 25.0543 262.569 24.5464C262.756 24.0385 262.85 23.437 262.85 22.7419V14.762L266.058 12.7971V15.4838V26.792H267.18C268.303 26.792 269.226 26.4712 269.947 25.8296C270.295 25.5355 270.576 25.1345 270.789 24.6266C271.03 24.1187 271.15 23.4771 271.15 22.7018H274.358C274.358 23.9048 274.158 24.9741 273.757 25.9098C273.356 26.8187 272.794 27.5806 272.073 28.1955C271.378 28.8104 270.602 29.2648 269.747 29.5589C268.891 29.853 268.036 30 267.18 30H266.058V31.1228C266.138 33.8229 265.536 36.0016 264.253 37.6591C263.638 38.4344 262.916 39.0225 262.088 39.4235C261.259 39.8245 260.39 40.0384 259.481 40.0651C258.599 40.0918 257.744 39.9314 256.915 39.5839C256.086 39.2364 255.351 38.7284 254.709 38.0601C254.068 37.3918 253.546 36.5764 253.145 35.614C252.771 34.6783 252.571 33.609 252.544 32.406Z" fill="white"/>
<circle cx="119" cy="20" r="3" fill="white"/>
<rect x="118" y="22" width="2" height="4" fill="white"/>
</svg>
